HIERARCHY
ROOT Hips
{
	OFFSET 0.000000 0.000000 0.000000
	CHANNELS 6 Xposition Yposition Zposition Xrotation Yrotation Zrotation
	JOINT LeftUpLeg_virtual
	{
		OFFSET 0.000000 0.000000 0.000000
		CHANNELS 3 Xrotation Yrotation Zrotation
		JOINT LeftUpLeg
		{
			OFFSET 13.026900 -6.336304 -1.092800
			CHANNELS 3 Xrotation Yrotation Zrotation
			JOINT LeftLeg
			{
				OFFSET 0.524474 -46.096886 9.782700
				CHANNELS 3 Xrotation Yrotation Zrotation
				JOINT LeftFoot
				{
					OFFSET -0.524474 -53.427422 -12.948200
					CHANNELS 3 Xrotation Yrotation Zrotation
					JOINT LeftToeBase
					{
						OFFSET 0.192200 -14.009700 16.364100
						CHANNELS 3 Xrotation Yrotation Zrotation
						JOINT LeftToe_End
						{
							OFFSET -1.784700 -0.561700 9.474800
							CHANNELS 3 Xrotation Yrotation Zrotation
							End Site
							{
								OFFSET 0 0 0
							}
						}
					}
				}
			}
		}
	}
	JOINT RightUpLeg_virtual
	{
		OFFSET 0.000000 0.000000 0.000000
		CHANNELS 3 Xrotation Yrotation Zrotation
		JOINT RightUpLeg
		{
			OFFSET -12.883000 -6.336304 -1.092800
			CHANNELS 3 Xrotation Yrotation Zrotation
			JOINT RightLeg
			{
				OFFSET -0.524587 -46.096825 9.782800
				CHANNELS 3 Xrotation Yrotation Zrotation
				JOINT RightFoot
				{
					OFFSET 0.524587 -53.427383 -12.948300
					CHANNELS 3 Xrotation Yrotation Zrotation
					JOINT RightToeBase
					{
						OFFSET -0.192200 -14.009700 16.364100
						CHANNELS 3 Xrotation Yrotation Zrotation
						JOINT RightToe_End
						{
							OFFSET 1.784700 -0.561700 9.474800
							CHANNELS 3 Xrotation Yrotation Zrotation
							End Site
							{
								OFFSET 0 0 0
							}
						}
					}
				}
			}
		}
	}
	JOINT Spine_virtual
	{
		OFFSET 0.000000 0.000000 0.000000
		CHANNELS 3 Xrotation Yrotation Zrotation
		JOINT Spine
		{
			OFFSET 0.072000 7.257294 -0.789700
			CHANNELS 3 Xrotation Yrotation Zrotation
			JOINT Spine1
			{
				OFFSET 0.000000 12.508769 -0.658067
				CHANNELS 3 Xrotation Yrotation Zrotation
				JOINT Spine1_split
				{
					OFFSET 0.000000 12.508769 -0.658067
					CHANNELS 3 Xrotation Yrotation Zrotation
					JOINT Spine2
					{
						OFFSET 0.000000 12.508769 -0.658067
						CHANNELS 3 Xrotation Yrotation Zrotation
						JOINT Neck_virtual
						{
							OFFSET 0.000000 0.000000 0.000000
							CHANNELS 3 Xrotation Yrotation Zrotation
							JOINT Neck
							{
								OFFSET 0.000000 14.033295 7.520400
								CHANNELS 3 Xrotation Yrotation Zrotation
								JOINT Head
								{
									OFFSET 0.000000 8.198502 5.703100
									CHANNELS 3 Xrotation Yrotation Zrotation
									JOINT HeadTop_End
									{
										OFFSET 0.000000 17.760803 13.332701
										CHANNELS 3 Xrotation Yrotation Zrotation
										End Site
										{
											OFFSET 0 0 0
										}
									}
								}
							}
						}
						JOINT LeftShoulder_virtual
						{
							OFFSET 0.000000 0.000000 0.000000
							CHANNELS 3 Xrotation Yrotation Zrotation
							JOINT LeftShoulder
							{
								OFFSET 6.292450 5.785301 -0.669000
								CHANNELS 3 Xrotation Yrotation Zrotation
								JOINT LeftShoulder_split
								{
									OFFSET 6.292450 5.785301 -0.669000
									CHANNELS 3 Xrotation Yrotation Zrotation
									JOINT LeftArm
									{
										OFFSET 13.907140 -6.093903 1.965100
										CHANNELS 3 Xrotation Yrotation Zrotation
										JOINT LeftForeArm
										{
											OFFSET 34.140198 0.000000 0.000000
											CHANNELS 3 Xrotation Yrotation Zrotation
											JOINT LeftHand
											{
												OFFSET 40.960209 0.000000 0.000000
												CHANNELS 3 Xrotation Yrotation Zrotation
												End Site
												{
													OFFSET 0 0 0
												}
											}
										}
									}
								}
							}
						}
						JOINT RightShoulder_virtual
						{
							OFFSET 0.000000 0.000000 0.000000
							CHANNELS 3 Xrotation Yrotation Zrotation
							JOINT RightShoulder
							{
								OFFSET -6.292450 5.785301 -0.669000
								CHANNELS 3 Xrotation Yrotation Zrotation
								JOINT RightShoulder_split
								{
									OFFSET -6.292450 5.785301 -0.669000
									CHANNELS 3 Xrotation Yrotation Zrotation
									JOINT RightArm
									{
										OFFSET -13.907140 -6.093903 1.965100
										CHANNELS 3 Xrotation Yrotation Zrotation
										JOINT RightForeArm
										{
											OFFSET -34.140198 0.000000 0.000000
											CHANNELS 3 Xrotation Yrotation Zrotation
											JOINT RightHand
											{
												OFFSET -40.960209 0.000000 0.000000
												CHANNELS 3 Xrotation Yrotation Zrotation
												End Site
												{
													OFFSET 0 0 0
												}
											}
										}
									}
								}
							}
						}
					}
				}
			}
		}
	}
}
MOTION
Frames: 10
Frame Time: 0.03333333
5.980869 109.562416 -12.436466 0.000000 0.000000 0.000000 5.110180 1.959174 -0.264981 -42.251574 3.488885 6.680831 26.498566 5.527732 4.331595 9.404938 -6.835254 -7.777858 3.811631 -1.342189 1.544304 0.000000 0.000000 0.000000 5.587468 -1.369915 -0.130723 -8.858068 -18.310455 -9.944695 24.521115 3.272907 -0.338072 -17.724638 -14.543553 17.921462 1.786648 3.978929 -4.263891 0.000000 0.000000 0.000000 6.911866 5.022241 -2.102461 19.156099 1.096929 0.932212 3.144632 1.012668 0.018138 0.071294 -0.051904 -0.017608 0.000000 0.000000 0.000000 5.715825 4.012792 1.027076 -13.637393 16.244533 5.114863 -18.841709 -27.819663 -26.855165 0.000000 0.000000 0.000000 5.010378 2.296973 -0.251420 -0.159304 -24.174534 4.939247 2.387053 3.848788 -4.797593 -18.056124 -22.155202 -70.562739 7.686218 -57.116822 1.984376 0.000000 0.000000 0.000000 6.668669 2.240610 0.634856 2.361027 14.722997 -8.069565 -2.420289 -0.293412 -0.002027 -36.243125 25.647246 82.200705 -38.309715 48.510285 36.378305 0.000000 0.000000 0.000000 
6.200513 109.550758 -11.936771 0.000000 0.000000 0.000000 5.371863 2.717064 -0.368966 -42.406865 3.240553 6.104100 26.722357 5.892110 4.363267 9.235041 -7.295265 -7.165624 3.759891 -1.275288 1.685625 0.000000 0.000000 0.000000 5.839094 -0.703938 -0.230064 -8.013675 -18.674898 -9.871504 23.836908 3.272006 -0.320487 -17.967590 -14.869026 18.132668 1.786263 4.038050 -4.311612 0.000000 0.000000 0.000000 7.239595 5.805770 -2.204522 19.056508 0.731016 0.671400 3.218100 1.230150 -0.230497 0.077495 -0.056546 -0.014586 0.000000 0.000000 0.000000 5.770032 4.269697 0.740637 -13.294112 16.556915 4.899004 -19.948793 -26.979585 -27.174965 0.000000 0.000000 0.000000 5.097965 2.546984 -0.511553 -0.219205 -24.404942 5.199024 2.222840 3.907150 -5.017148 -16.788670 -22.380908 -69.954347 6.690763 -57.392126 2.310045 0.000000 0.000000 0.000000 6.747663 2.514225 0.339949 2.055086 14.596155 -7.828908 -2.399729 -0.521548 0.198630 -36.700034 25.788233 82.720223 -38.467899 48.016421 36.445637 0.000000 0.000000 0.000000 
6.388682 109.511147 -11.461971 0.000000 0.000000 0.000000 5.631065 3.348713 -0.453065 -42.565274 3.049422 5.601942 26.971328 6.248377 4.392478 9.043802 -7.689849 -6.594248 3.692879 -1.222026 1.825745 0.000000 0.000000 0.000000 6.089861 -0.132861 -0.309945 -7.248527 -18.903025 -9.816951 23.274879 3.281175 -0.321545 -18.196345 -15.166983 18.373429 1.754084 4.091402 -4.363768 0.000000 0.000000 0.000000 7.526065 6.444437 -2.273257 18.935088 0.395697 0.395106 3.304962 1.427205 -0.469729 0.079849 -0.063875 -0.009839 0.000000 0.000000 0.000000 5.846038 4.499775 0.462923 -12.979210 16.770428 4.762495 -20.993275 -26.196014 -27.387629 0.000000 0.000000 0.000000 5.188313 2.767850 -0.753387 -0.269367 -24.709090 5.411810 2.094432 3.974639 -5.172973 -15.464885 -22.677748 -69.259293 5.756062 -57.603124 2.650278 0.000000 0.000000 0.000000 6.831127 2.758522 0.061746 1.794712 14.640055 -7.703541 -2.438991 -0.722677 0.393989 -36.944022 25.869410 83.131619 -38.585938 47.611138 36.582958 0.000000 0.000000 0.000000 
6.548945 109.448273 -11.008236 0.000000 0.000000 0.000000 5.890746 3.878977 -0.528973 -42.735022 2.895270 5.169511 27.239373 6.585464 4.423026 8.853062 -8.033379 -6.078002 3.604739 -1.180897 1.954522 0.000000 0.000000 0.000000 6.344076 0.362196 -0.379335 -6.575173 -19.018525 -9.778410 22.829253 3.293080 -0.335882 -18.409938 -15.439895 18.616331 1.711184 4.138194 -4.411201 0.000000 0.000000 0.000000 7.792972 6.969530 -2.319146 18.786557 0.087635 0.125109 3.399739 1.599060 -0.705782 0.082483 -0.076475 -0.005281 0.000000 0.000000 0.000000 5.932928 4.698793 0.187721 -12.701712 16.899541 4.723574 -21.880173 -25.444236 -27.483271 0.000000 0.000000 0.000000 5.277612 2.955012 -0.986699 -0.303745 -25.110174 5.586798 1.982092 4.042646 -5.286130 -14.086346 -23.008664 -68.471704 4.852916 -57.676563 2.973208 0.000000 0.000000 0.000000 6.909754 2.967513 -0.206336 1.578082 14.842109 -7.671312 -2.499435 -0.870247 0.565757 -36.969676 25.937942 83.397395 -38.722941 47.311689 36.837717 0.000000 0.000000 0.000000 
6.683205 109.376678 -10.565136 0.000000 0.000000 0.000000 6.161622 4.313320 -0.605431 -42.906070 2.766957 4.799445 27.515977 6.908489 4.454178 8.671558 -8.325115 -5.605894 3.499039 -1.150813 2.061871 0.000000 0.000000 0.000000 6.608381 0.775911 -0.444745 -5.993915 -19.054852 -9.743861 22.474095 3.297889 -0.357183 -18.605613 -15.688403 18.830838 1.698277 4.178710 -4.450629 0.000000 0.000000 0.000000 8.069857 7.406543 -2.353369 18.612868 -0.194627 -0.121503 3.492609 1.736208 -0.943395 0.079680 -0.093396 -0.003360 0.000000 0.000000 0.000000 6.015977 4.862768 -0.087144 -12.468760 16.963758 4.790793 -22.587792 -24.712357 -27.461710 0.000000 0.000000 0.000000 5.366545 3.100355 -1.220025 -0.314710 -25.602380 5.735000 1.868462 4.110782 -5.381168 -12.677841 -23.329706 -67.636850 3.951416 -57.603630 3.263498 0.000000 0.000000 0.000000 6.976326 3.134985 -0.467107 1.402496 15.182310 -7.705425 -2.580008 -0.987565 0.703786 -36.805338 26.013412 83.505319 -38.907134 47.110373 37.218910 0.000000 0.000000 0.000000 
6.800048 109.308006 -10.132000 0.000000 0.000000 0.000000 6.444620 4.651625 -0.682997 -43.073512 2.657610 4.490163 27.789731 7.224907 4.483366 8.495525 -8.560526 -5.175843 3.398828 -1.128602 2.137695 0.000000 0.000000 0.000000 6.885795 1.101413 -0.508660 -5.500888 -19.044268 -9.706060 22.169590 3.289580 -0.380593 -18.781232 -15.913040 19.004120 1.727587 4.214414 -4.482932 0.000000 0.000000 0.000000 8.370570 7.751869 -2.380861 18.423523 -0.451868 -0.337417 3.578847 1.833907 -1.185978 0.078806 -0.111460 -0.001222 0.000000 0.000000 0.000000 6.085626 4.988409 -0.361509 -12.268616 16.974589 4.949510 -23.116528 -23.985273 -27.336353 0.000000 0.000000 0.000000 5.445198 3.201384 -1.461303 -0.304995 -26.168876 5.846165 1.748728 4.173525 -5.471315 -11.256621 -23.592834 -66.806210 3.069612 -57.442526 3.542454 0.000000 0.000000 0.000000 7.019779 3.258580 -0.723051 1.270213 15.636755 -7.791410 -2.658760 -1.077234 0.800046 -36.482479 26.089776 83.458573 -39.131216 46.965579 37.693587 0.000000 0.000000 0.000000 
6.894151 109.251785 -9.709415 0.000000 0.000000 0.000000 6.737072 4.896031 -0.755273 -43.220406 2.561891 4.236554 28.044615 7.537845 4.508561 8.308415 -8.734863 -4.791848 3.310278 -1.112951 2.179947 0.000000 0.000000 0.000000 7.169967 1.335485 -0.564698 -5.104020 -19.012030 -9.664802 21.885065 3.274699 -0.407867 -18.924564 -16.111723 19.145336 1.779277 4.247975 -4.513670 0.000000 0.000000 0.000000 8.697911 8.004212 -2.400077 18.231626 -0.680811 -0.522495 3.653577 1.892429 -1.434384 0.078471 -0.124753 0.004030 0.000000 0.000000 0.000000 6.131739 5.075266 -0.632423 -12.076749 16.956595 5.158201 -23.489198 -23.259745 -27.114336 0.000000 0.000000 0.000000 5.508954 3.259911 -1.712795 -0.276121 -26.770103 5.918950 1.635756 4.226708 -5.542753 -9.838731 -23.744307 -66.044255 2.223086 -57.252971 3.832738 0.000000 0.000000 0.000000 7.036014 3.340731 -0.974338 1.180033 16.173299 -7.918093 -2.709822 -1.145430 0.863462 -36.039558 26.137601 83.304614 -39.376286 46.835748 38.208396 0.000000 0.000000 0.000000 
6.963920 109.211563 -9.302807 0.000000 0.000000 0.000000 7.033944 5.046743 -0.813278 -43.333411 2.474334 4.032874 28.275585 7.832527 4.532216 8.109664 -8.855842 -4.480418 3.216997 -1.103387 2.198256 0.000000 0.000000 0.000000 7.451074 1.473200 -0.604632 -4.819143 -18.969430 -9.629932 21.629464 3.264382 -0.438411 -19.015448 -16.276701 19.275434 1.819269 4.280100 -4.546123 0.000000 0.000000 0.000000 9.038192 8.154347 -2.404401 18.048288 -0.880263 -0.684564 3.716926 1.914573 -1.684793 0.080781 -0.132331 0.010323 0.000000 0.000000 0.000000 6.152540 5.125715 -0.893771 -11.868652 16.926208 5.373053 -23.739193 -22.511909 -26.825255 0.000000 0.000000 0.000000 5.550919 3.281743 -1.968958 -0.234565 -27.370194 5.948695 1.528693 4.271592 -5.582314 -8.512729 -23.782620 -65.430917 1.471960 -57.037585 4.178587 0.000000 0.000000 0.000000 7.026996 3.385653 -1.215323 1.131361 16.748636 -8.088101 -2.738460 -1.209421 0.908546 -35.535005 26.113680 83.096676 -39.628228 46.707371 38.722330 0.000000 0.000000 0.000000 
7.009532 109.184570 -8.916477 0.000000 0.000000 0.000000 7.322634 5.104252 -0.848278 -43.410732 2.396632 3.875472 28.477919 8.087258 4.554297 7.908929 -8.937104 -4.273658 3.105219 -1.100340 2.206301 0.000000 0.000000 0.000000 7.718297 1.517124 -0.621350 -4.658047 -18.922626 -9.615115 21.419070 3.271171 -0.471585 -19.058690 -16.397981 19.407370 1.844799 4.309272 -4.582672 0.000000 0.000000 0.000000 9.375479 8.211535 -2.388383 17.884000 -1.049030 -0.833290 3.768930 1.904791 -1.928857 0.089797 -0.137429 0.015352 0.000000 0.000000 0.000000 6.142574 5.141834 -1.137381 -11.615024 16.906648 5.543983 -23.886473 -21.724912 -26.479334 0.000000 0.000000 0.000000 5.569172 3.271309 -2.220676 -0.187830 -27.931820 5.941421 1.433711 4.323496 -5.581088 -7.354384 -23.707535 -65.009993 0.871879 -56.790953 4.626596 0.000000 0.000000 0.000000 6.997457 3.397389 -1.439556 1.121190 17.318991 -8.312761 -2.751788 -1.252758 0.953479 -35.014483 25.991720 82.884680 -39.866404 46.580463 39.190905 0.000000 0.000000 0.000000 
7.029124 109.174576 -8.564137 0.000000 0.000000 0.000000 7.594746 5.079488 -0.857123 -43.456303 2.338832 3.763380 28.646051 8.300282 4.572901 7.715391 -8.983127 -4.170713 2.982608 -1.104599 2.212397 0.000000 0.000000 0.000000 7.967610 1.472702 -0.612979 -4.615764 -18.873855 -9.622894 21.260752 3.297891 -0.510021 -19.074852 -16.478101 19.532219 1.873675 4.332916 -4.623245 0.000000 0.000000 0.000000 9.688085 8.191113 -2.348184 17.742113 -1.187529 -0.976805 3.810725 1.870496 -2.155016 0.097443 -0.142217 0.013902 0.000000 0.000000 0.000000 6.103069 5.129619 -1.354208 -11.301041 16.908936 5.639913 -23.950685 -20.906944 -26.089666 0.000000 0.000000 0.000000 5.570622 3.232203 -2.455355 -0.140199 -28.427099 5.907450 1.347518 4.384665 -5.541715 -6.464509 -23.562612 -64.809514 0.436433 -56.466963 5.177287 0.000000 0.000000 0.000000 6.960725 3.382859 -1.639255 1.149873 17.853785 -8.588848 -2.754136 -1.286246 0.988109 -34.520408 25.757041 82.703974 -40.081913 46.468915 39.589122 0.000000 0.000000 0.000000 
